<svg width="48" height="48" viewBox="0 0 48 48" xmlns="http://www.w3.org/2000/svg">
  <rect width="48" height="48" rx="11" fill="#FBF3E9"/>
  <path d="M12 15 L34 10" stroke="#C2954A" stroke-width="2" stroke-linecap="round"/>
  <path d="M13 18.5 L35 13.5" stroke="#D6A95B" stroke-width="2" stroke-linecap="round"/>
  <ellipse cx="13" cy="16.7" rx="2.6" ry="2" fill="#FFFDF9"/>
  <path d="M10 27 C10 36 16 41 24 41 C32 41 38 36 38 27 Z" fill="#8E7CC3"/>
  <ellipse cx="24" cy="27" rx="14" ry="3.2" fill="#B3A6DE"/>
  <path d="M12.5 27 C12.5 22.8 17.5 20.5 24 20.5 C30.5 20.5 35.5 22.8 35.5 27 Z" fill="#FFFDF9"/>
  <ellipse cx="24" cy="27" rx="11.5" ry="2.5" fill="#FFFDF9"/>
  <circle cx="20" cy="31.5" r="1.5" fill="#4A3B30"/>
  <circle cx="28" cy="31.5" r="1.5" fill="#4A3B30"/>
  <path d="M21.2 34.4 Q24 36.8 26.8 34.4" stroke="#4A3B30" stroke-width="1.5" fill="none" stroke-linecap="round"/>
</svg>
